<svg width="20" height="16" viewBox="0 0 20 16" fill="none" xmlns="http://www.w3.org/2000/svg">
<g id="Group">
<path id="Vector" d="M19.9484 2.63547C19.8582 2.20153 19.6569 1.80443 19.3757 1.47638C19.3164 1.40491 19.2544 1.34089 19.1873 1.27688C18.689 0.79845 17.9897 0.5 17.2258 0.5H2.77426C2.01032 0.5 1.31352 0.79845 0.812931 1.27688C0.745939 1.34089 0.683986 1.40491 0.624533 1.47638C0.343165 1.80439 0.141797 2.20153 0.0541407 2.63547C0.018125 2.80295 0 2.97602 0 3.151V12.8493C0 13.2213 0.0825783 13.579 0.229844 13.9019C0.366446 14.2102 0.567853 14.4892 0.812892 14.7231C0.875002 14.7823 0.936682 14.8367 1.00399 14.8909C1.48391 15.2706 2.1034 15.5 2.77426 15.5H17.2258C17.8969 15.5 18.5191 15.2706 18.9962 14.8885C19.0633 14.8367 19.1253 14.7823 19.1873 14.7231C19.4322 14.4892 19.6336 14.2102 19.773 13.9019V13.8995C19.9202 13.5766 20 13.2213 20 12.8493V3.151C20 2.97602 19.9822 2.80295 19.9484 2.63547ZM1.81676 2.23595C2.06461 1.99938 2.39747 1.85616 2.77426 1.85616H17.2258C17.6026 1.85616 17.9384 1.99938 18.1833 2.23595C18.2271 2.27809 18.2684 2.32504 18.3048 2.3717L10.7303 8.67943C10.5214 8.85437 10.2634 8.94077 10 8.94077C9.73932 8.94077 9.48143 8.85437 9.26974 8.67943L1.69813 2.36901C1.73164 2.32235 1.77293 2.27809 1.81676 2.23595ZM1.4193 12.8493V3.77239L6.90072 8.34152L1.42207 12.9058C1.4193 12.8885 1.4193 12.869 1.4193 12.8493ZM17.2258 14.1436H2.77426C2.52891 14.1436 2.29934 14.082 2.1034 13.9737L7.8838 9.16028L8.42345 9.60886C8.87506 9.98382 9.44018 10.1737 10 10.1737C10.5628 10.1737 11.1278 9.98382 11.5794 9.60886L12.1188 9.16028L17.8969 13.9737C17.7007 14.082 17.4711 14.1436 17.2258 14.1436ZM18.5807 12.8493C18.5807 12.869 18.5807 12.8885 18.5781 12.9058L13.0995 8.34417L18.5807 3.77482V12.8493Z" fill="#121E3A"/>
</g>
</svg>
