<svg width="47" height="59" viewBox="0 0 47 59" fill="none" xmlns="http://www.w3.org/2000/svg">
<path d="M10.9545 32.1818H2.59091C1.33636 32.1818 0.5 33.2545 0.5 34.8636V56.3182C0.5 57.9273 1.33636 59 2.59091 59H10.9545C12.2091 59 13.0455 57.9273 13.0455 56.3182V34.8636C13.0455 33.2545 12.2091 32.1818 10.9545 32.1818ZM44.4091 21.4545H36.0455C34.7909 21.4545 33.9545 22.5273 33.9545 24.1364V56.3182C33.9545 57.9273 34.7909 59 36.0455 59H44.4091C45.6636 59 46.5 57.9273 46.5 56.3182V24.1364C46.5 22.5273 45.6636 21.4545 44.4091 21.4545ZM27.6818 0H19.3182C18.0636 0 17.2273 1.07273 17.2273 2.68182V56.3182C17.2273 57.9273 18.0636 59 19.3182 59H27.6818C28.9364 59 29.7727 57.9273 29.7727 56.3182V2.68182C29.7727 1.07273 28.9364 0 27.6818 0Z" fill="#E8E8E8"/>
</svg>
