<svg width="47" height="59" viewBox="0 0 36 36" fill="none"
  xmlns="http://www.w3.org/2000/svg">
  <path d="M30.1983 4.23652L35.8053 25.3102C36.6163 28.3584 34.82 31.4916 31.7932 32.3083L18.8393 35.8039C15.8125 36.6207 12.7013 34.8117 11.8903 31.7635L6.2833 10.6898C5.47227 7.64163 7.26851 4.50844 10.2953 3.69167L23.2493 0.196118C26.2761 -0.62065 29.3872 1.1883 30.1983 4.23652ZM16.9154 10.5097C16.6205 9.40128 15.4891 8.74348 14.3885 9.04049C13.2878 9.3375 12.6346 10.4768 12.9295 11.5853C13.2245 12.6937 14.3558 13.3515 15.4565 13.0545C16.5571 12.7575 17.2103 11.6182 16.9154 10.5097ZM6.26265 18.6481L9.89739 32.3013C10.2708 33.7046 11.0016 34.9153 11.9649 35.8606L11.0512 35.8112C7.92193 35.646 5.51809 32.9574 5.68209 29.806L6.26265 18.6481ZM4.35502 15.5767L3.6217 29.6972C3.54615 31.149 3.87022 32.5287 4.49704 33.7281L3.64205 33.3944C0.716603 32.2635 -0.744589 28.9584 0.378384 26.0122L4.35502 15.5767Z" fill="white"/>
</svg>
