<svg width="45" height="59" viewBox="0 0 49 51" fill="none" xmlns="http://www.w3.org/2000/svg">
<path d="M24.4966 10.1081C35.954 10.1081 45.242 18.3106 45.242 28.4291V41.8108C45.242 42.2982 45.0228 42.7657 44.6325 43.1104C44.2422 43.455 43.7129 43.6487 43.161 43.6487H5.83221C5.28029 43.6487 4.75096 43.455 4.36069 43.1104C3.97042 42.7657 3.75117 42.2982 3.75117 41.8108V28.4291C3.75117 18.3106 13.0391 10.1081 24.4966 10.1081ZM22.6757 0H26.3175C26.4555 0 26.5878 0.0484073 26.6854 0.134573C26.7829 0.220738 26.8378 0.337603 26.8378 0.459459V5.97297C26.8378 6.09483 26.7829 6.2117 26.6854 6.29786C26.5878 6.38403 26.4555 6.43243 26.3175 6.43243H22.6757C22.5377 6.43243 22.4054 6.38403 22.3078 6.29786C22.2102 6.2117 22.1554 6.09483 22.1554 5.97297V0.459459C22.1554 0.337603 22.2102 0.220738 22.3078 0.134573C22.4054 0.0484073 22.5377 0 22.6757 0ZM2.7269 7.10209C2.77522 7.05938 2.8326 7.02549 2.89576 7.00236C2.95892 6.97924 3.02662 6.96734 3.09499 6.96734C3.16336 6.96734 3.23106 6.97924 3.29422 7.00236C3.35738 7.02549 3.41476 7.05938 3.46307 7.10209L7.87749 11.0006C7.97498 11.0868 8.02975 11.2036 8.02975 11.3254C8.02975 11.4472 7.97498 11.564 7.87749 11.6502L5.3022 13.9245C5.20464 14.0106 5.07236 14.059 4.93444 14.059C4.79651 14.059 4.66423 14.0106 4.56668 13.9245L0.152261 10.026C0.0547664 9.93982 0 9.823 0 9.7012C0 9.57939 0.0547664 9.46257 0.152261 9.37642L2.72755 7.10209H2.7269ZM46.2728 7.10209L48.8481 9.37642C48.9454 9.46255 49 9.57925 49 9.70091C49 9.82258 48.9454 9.93927 48.8481 10.0254L44.4336 13.9251C44.3853 13.9678 44.3279 14.0017 44.2648 14.0248C44.2016 14.0479 44.1339 14.0598 44.0656 14.0598C43.9972 14.0598 43.9295 14.0479 43.8663 14.0248C43.8032 14.0017 43.7458 13.9678 43.6975 13.9251L41.1222 11.6507C41.0738 11.6081 41.0354 11.5574 41.0093 11.5016C40.9831 11.4458 40.9696 11.3861 40.9696 11.3257C40.9696 11.2653 40.9831 11.2055 41.0093 11.1497C41.0354 11.094 41.0738 11.0433 41.1222 11.0006L45.5372 7.10209C45.6348 7.01599 45.7671 6.96763 45.905 6.96763C46.0429 6.96763 46.1752 7.01599 46.2728 7.10209ZM3.68614 47.3243H45.307C45.859 47.3243 46.3883 47.518 46.7786 47.8626C47.1688 48.2073 47.3881 48.6747 47.3881 49.1622V50.5405C47.3881 50.6624 47.3333 50.7793 47.2357 50.8654C47.1381 50.9516 47.0058 51 46.8678 51H2.12535C1.98737 51 1.85504 50.9516 1.75747 50.8654C1.6599 50.7793 1.60509 50.6624 1.60509 50.5405V49.1622C1.60509 48.6747 1.82434 48.2073 2.21461 47.8626C2.60489 47.518 3.13421 47.3243 3.68614 47.3243ZM13.311 29.1182V43.6487H17.4731V29.1182H13.311Z" fill="white"/>
</svg>
