<?xml version="1.0" encoding="UTF-8"?>
<svg xmlns="http://www.w3.org/2000/svg"
  xmlns:xlink="http://www.w3.org/1999/xlink" width="60" height="60" viewBox="0 0 321 322.8" version="1.1">
  <g id="surface1">
    <path style=" stroke:none;fill-rule:nonzero;fill:rgb(100%,100%,100%);fill-opacity:1;" d="M 150.242188 89.191406 L 150.242188 133.582031 C 149.710938 133.78125 149.195313 134 148.679688 134.230469 L 117.207031 102.757813 C 126.679688 95.683594 137.964844 90.878906 150.242188 89.191406 "/>
    <path style=" stroke:none;fill-rule:nonzero;fill:rgb(100%,100%,100%);fill-opacity:1;" d="M 204.328125 103.6875 L 173.828125 134.183594 C 173.253906 133.933594 172.671875 133.6875 172.082031 133.46875 L 172.082031 89.496094 C 184.109375 91.496094 195.113281 96.484375 204.328125 103.6875 "/>
    <path style=" stroke:none;fill-rule:nonzero;fill:rgb(100%,100%,100%);fill-opacity:1;" d="M 231.4375 151.378906 L 190.078125 151.378906 C 189.847656 150.769531 189.59375 150.167969 189.324219 149.578125 L 219.320313 119.585938 C 225.71875 128.84375 229.988281 139.679688 231.4375 151.378906 "/>
    <path style=" stroke:none;fill-rule:nonzero;fill:rgb(100%,100%,100%);fill-opacity:1;" d="M 230.84375 173.222656 C 228.824219 184.347656 224.242188 194.585938 217.738281 203.289063 L 189.371094 174.921875 C 189.621094 174.359375 189.859375 173.796875 190.078125 173.222656 "/>
    <path style=" stroke:none;fill-rule:nonzero;fill:rgb(100%,100%,100%);fill-opacity:1;" d="M 202.164063 218.597656 C 193.414063 224.925781 183.175781 229.320313 172.082031 231.167969 L 172.082031 191.128906 C 172.703125 190.898438 173.320313 190.640625 173.929688 190.363281 "/>
    <path style=" stroke:none;fill-rule:nonzero;fill:rgb(100%,100%,100%);fill-opacity:1;" d="M 150.242188 191.019531 L 150.242188 231.464844 C 138.910156 229.910156 128.425781 225.699219 119.425781 219.476563 L 148.578125 190.324219 C 149.128906 190.570313 149.679688 190.800781 150.242188 191.019531 "/>
    <path style=" stroke:none;fill-rule:nonzero;fill:rgb(100%,100%,100%);fill-opacity:1;" d="M 133.191406 174.824219 L 103.519531 204.492188 C 96.523438 195.53125 91.609375 184.863281 89.496094 173.222656 L 132.53125 173.222656 C 132.734375 173.761719 132.960938 174.292969 133.191406 174.824219 "/>
    <path style=" stroke:none;fill-rule:nonzero;fill:rgb(100%,100%,100%);fill-opacity:1;" d="M 133.238281 149.671875 C 132.988281 150.234375 132.746094 150.804688 132.53125 151.378906 L 88.902344 151.378906 C 90.417969 139.144531 95.015625 127.855469 101.898438 118.335938 "/>
    <path style=" stroke:none;fill-rule:nonzero;fill:rgb(94.499207%,94.499207%,94.898987%);fill-opacity:1;" d="M 190.078125 173.222656 C 189.859375 173.796875 189.621094 174.359375 189.371094 174.921875 L 217.738281 203.289063 C 213.355469 209.152344 208.101563 214.320313 202.164063 218.597656 L 173.929688 190.363281 C 173.320313 190.640625 172.703125 190.898438 172.082031 191.128906 L 172.082031 231.167969 C 168.210938 231.816406 164.226563 232.152344 160.167969 232.152344 C 156.800781 232.152344 153.484375 231.921875 150.242188 231.464844 L 150.242188 191.019531 C 149.679688 190.800781 149.128906 190.570313 148.578125 190.324219 L 119.425781 219.476563 C 113.390625 215.328125 108.027344 210.265625 103.519531 204.492188 L 133.191406 174.824219 C 132.960938 174.292969 132.734375 173.761719 132.53125 173.222656 L 89.496094 173.222656 C 88.742188 169.035156 88.34375 164.730469 88.34375 160.328125 C 88.34375 157.296875 88.53125 154.3125 88.898438 151.378906 L 132.53125 151.378906 C 132.746094 150.804688 132.988281 150.234375 133.238281 149.671875 L 101.898438 118.332031 C 106.183594 112.394531 111.34375 107.140625 117.207031 102.761719 L 148.679688 134.230469 C 149.195313 134 149.710938 133.78125 150.242188 133.582031 L 150.242188 89.191406 C 153.484375 88.734375 156.800781 88.503906 160.167969 88.503906 C 164.226563 88.503906 168.210938 88.839844 172.082031 89.496094 L 172.082031 133.46875 C 172.671875 133.6875 173.253906 133.933594 173.828125 134.183594 L 204.328125 103.6875 C 210.097656 108.179688 215.160156 113.546875 219.320313 119.585938 L 189.324219 149.578125 C 189.597656 150.167969 189.847656 150.769531 190.078125 151.378906 L 231.4375 151.378906 C 231.808594 154.3125 231.992188 157.296875 231.992188 160.328125 C 231.992188 164.730469 231.597656 169.035156 230.84375 173.222656 "/>
    <path style=" stroke:none;fill-rule:nonzero;fill:rgb(88.999939%,11.799622%,14.498901%);fill-opacity:1;" d="M 217.738281 203.289063 L 189.371094 174.921875 C 189.621094 174.359375 189.859375 173.796875 190.078125 173.222656 L 230.839844 173.222656 C 228.824219 184.347656 224.242188 194.585938 217.738281 203.289063 M 172.082031 231.167969 L 172.082031 191.132813 C 172.703125 190.898438 173.320313 190.640625 173.929688 190.363281 L 202.164063 218.597656 C 193.414063 224.925781 183.175781 229.320313 172.082031 231.167969 M 119.425781 219.476563 L 148.578125 190.324219 C 149.128906 190.570313 149.679688 190.800781 150.242188 191.019531 L 150.242188 231.464844 C 138.910156 229.910156 128.425781 225.699219 119.425781 219.476563 M 103.519531 204.492188 C 96.527344 195.53125 91.605469 184.863281 89.496094 173.222656 L 132.53125 173.222656 C 132.734375 173.765625 132.960938 174.292969 133.191406 174.824219 Z M 101.898438 118.332031 L 133.238281 149.671875 C 132.988281 150.234375 132.746094 150.804688 132.53125 151.378906 L 88.902344 151.378906 C 90.417969 139.144531 95.015625 127.855469 101.898438 118.332031 M 150.242188 89.191406 L 150.242188 133.582031 C 149.714844 133.78125 149.195313 134 148.679688 134.230469 L 117.207031 102.761719 C 126.679688 95.683594 137.964844 90.878906 150.242188 89.191406 M 204.328125 103.6875 L 173.828125 134.183594 C 173.253906 133.933594 172.671875 133.6875 172.082031 133.46875 L 172.082031 89.496094 C 184.109375 91.496094 195.113281 96.484375 204.328125 103.6875 M 219.320313 119.585938 C 225.71875 128.84375 229.988281 139.679688 231.4375 151.378906 L 190.078125 151.378906 C 189.847656 150.769531 189.59375 150.167969 189.324219 149.578125 Z M 302.273438 143.578125 C 296.015625 143.578125 290.472656 146.652344 287.078125 151.378906 L 251.847656 151.378906 C 249.839844 134.316406 243.152344 118.683594 233.105469 105.796875 L 258.71875 80.183594 C 259.753906 80.363281 260.816406 80.460938 261.902344 80.460938 C 272.246094 80.460938 280.628906 72.082031 280.628906 61.746094 C 280.628906 51.40625 272.246094 43.019531 261.902344 43.019531 C 251.5625 43.019531 243.183594 51.40625 243.183594 61.746094 C 243.183594 62.71875 243.257813 63.679688 243.402344 64.609375 L 217.738281 90.277344 C 204.878906 80.039063 189.210938 73.175781 172.082031 71.03125 L 172.082031 34.027344 C 176.886719 30.636719 180.023438 25.046875 180.023438 18.726563 C 180.023438 8.386719 171.644531 0 161.300781 0 C 150.964844 0 142.582031 8.386719 142.582031 18.726563 C 142.582031 24.917969 145.601563 30.414063 150.242188 33.820313 L 150.242188 70.871094 C 132.953125 72.785156 117.113281 79.496094 104.074219 89.628906 L 78.886719 64.4375 L 78.503906 64.816406 C 78.667969 63.816406 78.761719 62.789063 78.761719 61.746094 C 78.761719 51.40625 70.382813 43.019531 60.039063 43.019531 C 49.699219 43.019531 41.320313 51.40625 41.320313 61.746094 C 41.320313 72.082031 49.699219 80.460938 60.039063 80.460938 C 61.28125 80.460938 62.5 80.335938 63.671875 80.109375 L 88.542969 104.976563 C 78.136719 118.023438 71.203125 133.953125 69.152344 151.378906 L 33.921875 151.378906 C 30.527344 146.652344 24.984375 143.578125 18.71875 143.578125 C 8.378906 143.578125 0 151.964844 0 162.300781 C 0 172.640625 8.378906 181.019531 18.71875 181.019531 C 24.984375 181.019531 30.527344 177.941406 33.921875 173.222656 L 69.152344 173.222656 C 71.203125 190.609375 78.105469 206.511719 88.476563 219.539063 L 63.472656 244.542969 C 62.359375 244.335938 61.214844 244.222656 60.039063 244.222656 C 49.699219 244.222656 41.320313 252.609375 41.320313 262.949219 C 41.320313 273.285156 49.699219 281.664063 60.039063 281.664063 C 70.382813 281.664063 78.761719 273.285156 78.761719 262.949219 C 78.761719 261.921875 78.675781 260.917969 78.515625 259.929688 L 78.742188 260.160156 L 103.996094 234.90625 C 117.050781 245.078125 132.921875 251.808594 150.242188 253.726563 L 150.242188 288.773438 L 150.527344 288.773438 C 145.71875 292.164063 142.582031 297.757813 142.582031 304.078125 C 142.582031 314.414063 150.964844 322.800781 161.300781 322.800781 C 171.644531 322.800781 180.023438 314.414063 180.023438 304.078125 C 180.023438 297.757813 176.886719 292.164063 172.082031 288.773438 L 172.082031 253.570313 C 189.25 251.417969 204.941406 244.527344 217.824219 234.257813 L 243.4375 259.878906 C 243.277344 260.875 243.183594 261.902344 243.183594 262.949219 C 243.183594 273.285156 251.5625 281.664063 261.902344 281.664063 C 272.246094 281.664063 280.628906 273.285156 280.628906 262.949219 C 280.628906 252.609375 272.246094 244.222656 261.902344 244.222656 C 260.890625 244.222656 259.890625 244.308594 258.917969 244.46875 L 233.164063 218.71875 C 243.179688 205.851563 249.84375 190.242188 251.847656 173.222656 L 287.078125 173.222656 C 290.472656 177.941406 296.015625 181.019531 302.273438 181.019531 C 312.621094 181.019531 321 172.640625 321 162.300781 C 321 151.964844 312.621094 143.578125 302.273438 143.578125 "/>
  </g>
</svg>
